<svg version="1.1" id="mysvg" xmlns="http://www.w3.org/2000/svg" width="500px" height="500px" xmlns:xlink="http://www.w3.org/1999/xlink" x="0px" y="0px" viewBox="0 0 149.09 143.22" style="enable-background:new 0 0 149.09 143.22;" xml:space="preserve">
	<g>
		<path d="M97.88,78.74c1.54-2.77,3.82-4.59,6.83-5.44c3.09-0.88,6-0.54,8.73,1.01c2.77,1.54,4.59,3.84,5.46,6.89
		c0.87,3.05,0.53,5.96-1.01,8.73c-1.51,2.76-3.78,4.58-6.83,5.44c-3.09,0.88-6.02,0.55-8.79-1c-2.73-1.55-4.55-3.89-5.44-7.02
		C95.99,84.39,96.34,81.52,97.88,78.74z M97.18,102.77c5.2,2.86,10.62,3.49,16.28,1.88c5.8-1.65,10.17-5.03,13.1-10.12
		c3.01-5.12,3.71-10.49,2.11-16.1c-1.58-5.54-4.98-9.72-10.2-12.54c-5.24-2.85-10.7-3.47-16.39-1.85
		c-5.5,1.57-9.79,4.94-12.86,10.12c-3,5.16-3.73,10.41-2.21,15.77C88.63,95.61,92.02,99.89,97.18,102.77z"/>
		<path d="M59.49,46.87c-3.11-5.09-7.51-8.35-13.21-9.78c-5.55-1.4-10.95-0.62-16.2,2.33c-5.17,2.97-8.44,7.17-9.81,12.61
		c-1.42,5.66-0.63,11.05,2.4,16.16c3.06,5.12,7.44,8.39,13.14,9.83c4.22,1.06,8.25,0.94,12.11-0.34l-4.14,16.48
		c-0.17,0.66,0.23,1.32,0.89,1.49l7.41,1.86c0.66,0.17,1.32-0.23,1.49-0.89l8.27-32.87c0.02-0.06,0-0.12,0.01-0.18
		c0.07-0.24,0.16-0.48,0.22-0.73C63.46,57.24,62.6,51.92,59.49,46.87z M38.38,68.72c-3.11-0.78-5.48-2.54-7.11-5.26
		c-1.63-2.72-2.05-5.66-1.25-8.81c0.74-2.96,2.48-5.26,5.2-6.89c2.72-1.63,5.62-2.06,8.7-1.28c3.07,0.77,5.43,2.52,7.06,5.24
		c1.63,2.72,2.06,5.6,1.3,8.64c-0.77,3.08-2.52,5.43-5.24,7.06C44.3,69.05,41.42,69.48,38.38,68.72z"/>
		<path d="M65.87,122.28l-6.91-1.74c-0.8-0.2-1.28-1.01-1.08-1.8l24.32-96.72c0.2-0.8,1.01-1.28,1.8-1.08l6.91,1.74
		c0.8,0.2,1.28,1.01,1.08,1.8L67.67,121.2C67.47,122,66.67,122.48,65.87,122.28z"/>
	</g>
</svg>